<?xml version="1.0" encoding="UTF-8" standalone="no"?>
<svg
   xmlns:dc="http://purl.org/dc/elements/1.1/"
   xmlns:cc="http://creativecommons.org/ns#"
   xmlns:rdf="http://www.w3.org/1999/02/22-rdf-syntax-ns#"
   xmlns:svg="http://www.w3.org/2000/svg"
   xmlns="http://www.w3.org/2000/svg"
   xmlns:sodipodi="http://sodipodi.sourceforge.net/DTD/sodipodi-0.dtd"
   xmlns:inkscape="http://www.inkscape.org/namespaces/inkscape"
   width="120mm"
   height="50mm"
   viewBox="0 0 120 50"
   version="1.1"
   id="svg969"
   inkscape:version="1.0.2-2 (e86c870879, 2021-01-15)"
   sodipodi:docname="cepsem.svg">
  <defs
     id="defs963" />
  <sodipodi:namedview
     id="base"
     pagecolor="#ffffff"
     bordercolor="#666666"
     borderopacity="1.0"
     inkscape:pageopacity="0.0"
     inkscape:pageshadow="2"
     inkscape:zoom="1.979899"
     inkscape:cx="260.0892"
     inkscape:cy="97.493563"
     inkscape:document-units="mm"
     inkscape:current-layer="layer1"
     inkscape:document-rotation="0"
     showgrid="false"
     inkscape:window-width="1920"
     inkscape:window-height="1017"
     inkscape:window-x="-8"
     inkscape:window-y="472"
     inkscape:window-maximized="1" />
  <metadata
     id="metadata966">
    <rdf:RDF>
      <cc:Work
         rdf:about="">
        <dc:format>image/svg+xml</dc:format>
        <dc:type
           rdf:resource="http://purl.org/dc/dcmitype/StillImage" />
        <dc:title />
      </cc:Work>
    </rdf:RDF>
  </metadata>
  <g
     inkscape:label="Layer 1"
     inkscape:groupmode="layer"
     id="layer1">
    <path
       class="st0"
       d="m 105.26004,13.107359 c 0.15081,8.337021 -11.596694,7.995708 -11.435304,-0.03969 0.21432,-8.8608964 11.218344,-8.7603544 11.435304,0.03969 z"
       id="path61"
       style="fill:#d91480;stroke:#d91480;stroke-width:0.264583;stroke-miterlimit:10;fill-opacity:1;stroke-opacity:1" />
    <path
       class="st1"
       d="M 97.198176,21.552859"
       id="path65"
       style="fill:none;stroke:#1d1d1b;stroke-width:0.264583;stroke-miterlimit:10" />
    <path
       class="st2"
       d="m 82.561426,20.132047 c 0.30956,7.38981 -9.80546,6.96383 -9.69169,-0.179917 -0.45243,-7.262813 9.87161,-6.416146 9.69169,0.179917 z"
       id="path67"
       style="fill:#fdc618;fill-opacity:1;stroke:#fdc618;stroke-width:0.264583;stroke-miterlimit:10;stroke-opacity:1" />
    <path
       class="st3"
       d="m 96.343576,22.836087 c 0.17198,5.50863 -7.33425,5.50598 -7.15963,0 -0.29898,-5.696478 7.22048,-5.318124 7.15963,0 z"
       id="path69"
       style="fill:#11aebf;fill-opacity:1;stroke:#11aebf;stroke-width:0.264583;stroke-miterlimit:10;stroke-opacity:1" />
    <path
       class="st0"
       d="m 104.99016,17.340692 c 0,0 8.84502,16.121065 -9.437694,25.286225 0,0 12.186714,-12.17877 5.746754,-22.357287 0,0 2.43152,0.08996 3.69359,-2.701396"
       id="path71"
       style="fill:#d91480;stroke:#d91480;stroke-width:0.264583;stroke-miterlimit:10;stroke-opacity:1;fill-opacity:1" />
    <path
       class="st0"
       d="m 93.144756,11.205005 c 0,0 -0.6641,1.860021 -0.38364,2.667 0,0 -5.47158,-1.352021 -10.60715,0.719667 0.003,0.0026 7.47713,-4.016375 10.99079,-3.386667 z"
       id="path73"
       style="fill:#d91480;stroke:#d91480;stroke-width:0.264583;stroke-miterlimit:10;fill-opacity:1;stroke-opacity:1" />
    <path
       class="st3"
       d="m 96.883326,24.796647 c 0,0 5.222874,10.8294 -4.11957,17.94404 0,0 6.05632,-9.54881 1.95792,-15.35641 0,0 1.98173,-0.71438 2.16165,-2.58763 z"
       id="path75"
       style="fill:#11aebf;fill-opacity:1;stroke:#11aebf;stroke-width:0.264583;stroke-miterlimit:10;stroke-opacity:1" />
    <path
       class="st3"
       d="m 88.416656,22.116422 c 0,0 -4.7281,1.307045 -6.39498,3.468685 0,0 6.12511,-2.11666 6.66486,-1.30704 0,0 -0.58473,-0.67733 -0.26988,-2.161645 z"
       id="path77"
       style="fill:#11aebf;fill-opacity:1;stroke:#11aebf;stroke-width:0.264583;stroke-miterlimit:10;stroke-opacity:1" />
    <path
       class="st2"
       d="m 82.561426,16.261192 c 0,0 5.96636,-1.092729 9.0514,-0.449791 0,0 -7.43215,0.899583 -8.24177,2.616729 0,-0.0026 0.0899,-1.087438 -0.80963,-2.166938 z"
       id="path79"
       style="fill:#fdc618;fill-opacity:1;stroke:#fdc618;stroke-width:0.264583;stroke-miterlimit:10;stroke-opacity:1" />
    <path
       class="st2"
       d="m 78.552986,26.259797 c 0.0423,-0.0159 -0.35983,14.36687 11.16807,15.94379 0,0 -15.13152,0.17992 -15.13152,-16.61848 0,-0.003 1.71185,1.48431 3.96345,0.67469 z"
       id="path81"
       style="fill:#fdc618;fill-opacity:1;stroke:#fdc618;stroke-width:0.264583;stroke-miterlimit:10;stroke-opacity:1" />
    <g
       aria-label="CEPSEM"
       id="text110"
       style="font-style:normal;font-variant:normal;font-weight:600;font-stretch:normal;font-size:14.1111px;line-height:1.25;font-family:Inter;-inkscape-font-specification:'Inter, Semi-Bold';font-variant-ligatures:normal;font-variant-caps:normal;font-variant-numeric:normal;font-variant-east-asian:normal;fill:#11aebf;fill-opacity:1;stroke-width:0.264583"
       transform="translate(3.2127976,-0.47247024)">
      <path
         d="m 16.587087,24.221295 h -1.874131 q -0.08018,-0.461016 -0.295651,-0.8168 -0.215475,-0.360795 -0.536182,-0.611347 -0.320707,-0.250552 -0.731613,-0.375829 -0.405894,-0.130287 -0.876932,-0.130287 -0.836845,0 -1.483269,0.420928 -0.646425,0.415917 -1.0122313,1.222695 -0.3658062,0.801767 -0.3658062,1.959318 0,1.177595 0.3658062,1.984373 0.3708173,0.801768 1.0122313,1.212673 0.646424,0.405895 1.478258,0.405895 0.461016,0 0.861899,-0.120265 0.405895,-0.125276 0.726602,-0.365807 0.325717,-0.24053 0.546203,-0.591303 0.225497,-0.350773 0.310685,-0.801767 l 1.874131,0.01002 q -0.105232,0.731613 -0.456005,1.373026 -0.345762,0.641414 -0.906999,1.132496 -0.561237,0.486072 -1.312894,0.761679 -0.751657,0.270596 -1.668678,0.270596 -1.352982,0 -2.4153229,-0.62638 Q 8.7648468,29.90883 8.1534994,28.726224 7.542152,27.543618 7.542152,25.889973 q 0,-1.658656 0.6163584,-2.836251 0.6163585,-1.182606 1.6786998,-1.808987 1.0623418,-0.62638 2.4053008,-0.62638 0.856889,0 1.593512,0.24053 0.736624,0.24053 1.312894,0.706557 0.57627,0.461016 0.947087,1.132496 0.375829,0.666469 0.491083,1.523357 z"
         style="font-style:normal;font-variant:normal;font-weight:600;font-stretch:normal;font-size:14.1111px;font-family:Inter;-inkscape-font-specification:'Inter, Semi-Bold';font-variant-ligatures:normal;font-variant-caps:normal;font-variant-numeric:normal;font-variant-east-asian:normal;fill:#d91480;fill-opacity:1;stroke-width:0.264583"
         id="path1039" />
      <path
         d="M 18.295833,31.021282 V 20.758664 h 6.674711 v 1.558435 h -4.815613 v 2.78614 h 4.469851 v 1.558435 h -4.469851 v 2.801173 h 4.855701 v 1.558435 z"
         style="stroke-width:0.264583"
         id="path1041" />
      <path
         d="M 26.869728,31.021282 V 20.758664 h 3.848482 q 1.182606,0 1.984373,0.440972 0.806778,0.440972 1.217684,1.212672 0.415916,0.76669 0.415916,1.743844 0,0.987175 -0.415916,1.753865 -0.415917,0.76669 -1.227706,1.207662 -0.811789,0.435961 -1.999407,0.435961 h -2.550621 v -1.528369 h 2.300069 q 0.691524,0 1.132496,-0.24053 0.440972,-0.24053 0.651436,-0.661458 0.215475,-0.420927 0.215475,-0.967131 0,-0.546204 -0.215475,-0.962121 -0.210464,-0.415916 -0.656447,-0.646424 -0.440972,-0.235519 -1.137507,-0.235519 h -1.703755 v 8.709194 z"
         style="stroke-width:0.264583"
         id="path1043" />
      <path
         d="m 41.527018,23.579882 q -0.07015,-0.656447 -0.591303,-1.022253 -0.516138,-0.365807 -1.34296,-0.365807 -0.581281,0 -0.997198,0.175387 -0.415917,0.175387 -0.636403,0.476049 -0.220486,0.300663 -0.225497,0.686513 0,0.320707 0.145321,0.556226 0.150331,0.235519 0.405894,0.400884 0.255563,0.160353 0.566248,0.270596 0.310685,0.110243 0.626381,0.185409 l 0.96212,0.24053 q 0.581281,0.135298 1.117463,0.365806 0.541193,0.230508 0.967132,0.581281 0.430949,0.350773 0.681502,0.846867 0.250552,0.496093 0.250552,1.162562 0,0.901988 -0.461016,1.588501 -0.461016,0.681502 -1.332938,1.067352 -0.866911,0.38084 -2.099628,0.38084 -1.197639,0 -2.079583,-0.370818 -0.876933,-0.370817 -1.373026,-1.082385 -0.491082,-0.711568 -0.531171,-1.733821 h 1.829031 q 0.04009,0.536181 0.330729,0.891965 0.290641,0.355784 0.756668,0.531171 0.471038,0.175387 1.052319,0.175387 0.606337,0 1.062342,-0.180398 0.461016,-0.185409 0.72159,-0.511127 0.260574,-0.330728 0.265585,-0.7717 -0.005,-0.400884 -0.235519,-0.661458 -0.230508,-0.265585 -0.646424,-0.440972 -0.410906,-0.180398 -0.962121,-0.320707 L 38.585535,26.4011 q -1.267794,-0.325718 -2.004418,-0.987176 -0.731612,-0.666469 -0.731612,-1.768899 0,-0.906999 0.491082,-1.588501 0.496093,-0.681502 1.347971,-1.05733 0.851877,-0.380839 1.929252,-0.380839 1.092408,0 1.914219,0.380839 0.826822,0.375828 1.29786,1.047308 0.471038,0.666469 0.486071,1.53338 z"
         style="stroke-width:0.264583"
         id="path1045" />
      <path
         d="M 45.109905,31.021282 V 20.758664 h 6.674711 v 1.558435 h -4.815614 v 2.78614 h 4.469852 v 1.558435 h -4.469852 v 2.801173 h 4.855702 v 1.558435 z"
         style="stroke-width:0.264583"
         id="path1047" />
      <path
         d="m 53.683799,20.758664 h 2.275014 l 3.046715,7.436389 h 0.120265 l 3.046715,-7.436389 h 2.275014 V 31.021282 H 62.66359 v -7.050539 h -0.09521 l -2.83625,7.020473 H 58.399192 L 55.562941,23.95571 h -0.09521 v 7.065572 h -1.783932 z"
         style="fill:#fdc618;fill-opacity:1;stroke-width:0.264583"
         id="path1049" />
    </g>
  </g>
</svg>
